<svg width="60" height="20" viewBox="0 0 60 20" fill="none" xmlns="http://www.w3.org/2000/svg">
<path d="M11.4905 12.0084V8.00558C11.4905 7.457 11.3881 6.94096 11.1832 6.45746C10.9873 5.96467 10.7156 5.53696 10.3682 5.17434C10.0208 4.81172 9.61108 4.52813 9.13899 4.32357C8.6758 4.10972 8.18144 4.00279 7.65591 4.00279C7.13037 4.00279 6.63156 4.10972 6.15946 4.32357C5.69628 4.52813 5.29099 4.81172 4.94361 5.17434C4.59622 5.53696 4.32009 5.96467 4.11522 6.45746C3.91925 6.94096 3.82127 7.457 3.82127 8.00558V12.0084H11.4905ZM15.3252 20H13.0821C12.2031 20 11.4905 19.2538 11.4905 18.3333V15.9972H3.82127V18.3333C3.82127 19.2538 3.10873 20 2.22976 20H0V8.00558C0 6.89912 0.200416 5.86239 0.601249 4.8954C1.00208 3.91911 1.54543 3.06834 2.2313 2.3431C2.92608 1.61785 3.73665 1.04603 4.66302 0.627615C5.5983 0.209205 6.59593 1.58087e-07 7.65591 1.58087e-07C8.71589 1.58087e-07 9.70906 0.209205 10.6354 0.627615C11.5707 1.04603 12.3857 1.61785 13.0805 2.3431C13.7753 3.06834 14.3231 3.91911 14.7239 4.8954C15.1248 5.86239 15.3252 6.89912 15.3252 8.00558V20Z" fill="#2E6DF3"/>
<path d="M22.4867 20H18.6521V1.58087e-07H20.8952C21.7742 1.58087e-07 22.4867 0.746192 22.4867 1.66667V20Z" fill="#2E6DF3"/>
<path d="M41.3793 20H39.0988C37.9704 20 36.9263 19.3744 36.3546 18.3556L29.8888 6.83403V20H26.0541V1.58087e-07H28.3337C29.4626 1.58087e-07 30.507 0.626216 31.0786 1.64575L37.5447 13.1799V1.58087e-07H41.3793V20Z" fill="#2E6DF3"/>
<path d="M56.177 7.99163V11.9944C56.177 12.543 56.0749 13.059 55.8707 13.5425C55.6753 14.0353 55.4045 14.463 55.0581 14.8257C54.7118 15.1883 54.3033 15.4719 53.8326 15.6764C53.3709 15.8903 52.878 15.9972 52.3541 15.9972C51.8301 15.9972 51.3329 15.8903 50.8622 15.6764C50.4004 15.4719 49.9964 15.1883 49.65 14.8257C49.3037 14.463 49.0284 14.0353 48.8242 13.5425C48.6288 13.059 48.5311 12.543 48.5311 11.9944V7.99163H56.177ZM60 0H57.7686C56.8896 0 56.177 0.746192 56.177 1.66667V4.00279H48.5311V1.66667C48.5311 0.746193 47.8186 0 46.9396 0H44.7215V11.9944C44.7215 13.1009 44.9213 14.1376 45.3209 15.1046C45.7205 16.0809 46.2622 16.9317 46.946 17.6569C47.6387 18.3821 48.4468 18.954 49.3703 19.3724C50.3027 19.7908 51.2973 20 52.3541 20C53.4108 20 54.401 19.7908 55.3245 19.3724C56.257 18.954 57.0695 18.3821 57.7622 17.6569C58.4548 16.9317 59.001 16.0809 59.4006 15.1046C59.8002 14.1376 60 13.1009 60 11.9944V0Z" fill="#2E6DF3"/>
</svg>
