<svg width="19" height="19" viewBox="0 0 19 19" fill="none" xmlns="http://www.w3.org/2000/svg">
<path fill-rule="evenodd" clip-rule="evenodd" d="M10.8575 0.919883V1.83983H13.3688H15.8801L13.3782 4.3423L10.8763 6.84484L10.4797 6.57407C9.91769 6.19034 9.16965 5.86014 8.436 5.67199C3.9296 4.51607 -0.402141 8.22345 0.029819 12.8665C0.330004 16.0934 2.94284 18.7017 6.14679 18.9726C8.17711 19.1444 9.99313 18.5063 11.4378 17.1135C12.3027 16.2797 12.8925 15.3316 13.2438 14.2103C13.8315 12.3348 13.5125 10.1121 12.4275 8.52233L12.1568 8.12566L14.6587 5.62319L17.1606 3.12065V5.63258V8.14444H18.0803H19L18.9831 4.08913L18.9662 0.0338216L14.9118 0.016878L10.8575 0V0.919883ZM7.85716 7.39472C8.11703 7.45199 8.59561 7.62714 8.92061 7.7839C9.9863 8.29812 10.703 9.01488 11.2184 10.0818C11.6149 10.9025 11.7367 11.513 11.6956 12.4716C11.633 13.9256 11.057 15.0943 9.92438 16.065C9.51028 16.4198 8.56186 16.9008 7.96858 17.0566C7.38016 17.2113 6.11626 17.2081 5.54307 17.0507C3.75325 16.559 2.44496 15.2504 1.95338 13.4602C1.796 12.8868 1.79285 11.6226 1.94747 11.0341C2.10328 10.4406 2.58409 9.49199 2.93883 9.07779C3.70768 8.1803 4.59885 7.636 5.7034 7.38914C6.25059 7.26692 7.2887 7.26961 7.85716 7.39472Z" fill="#7D8187"/>
</svg>
